<?xml version="1.0" encoding="UTF-8"?>
<svg width="76px" height="63px" viewBox="0 0 76 63" version="1.1" xmlns="http://www.w3.org/2000/svg" xmlns:xlink="http://www.w3.org/1999/xlink">
    <!-- Generator: Sketch 53.1 (72631) - https://sketchapp.com -->
    <title>returns-icon</title>
    <desc>Created with Sketch.</desc>
    <defs>
        <polygon id="path-1" points="37.93605 64 75.872 64 75.872 0.979 37.93605 0.979 0.0001 0.979 0.0001 64 37.93605 64"></polygon>
    </defs>
    <g id="Page-1" stroke="none" stroke-width="1" fill="none" fill-rule="evenodd">
        <g id="desktop-homepage" transform="translate(-682.000000, -2395.000000)">
            <g id="value-prop-callouts" transform="translate(0.000000, 2341.000000)">
                <g id="returns" transform="translate(624.000000, 53.000000)">
                    <g id="returns-icon" transform="translate(58.000000, 0.000000)">
                        <path d="M62.043,29.9126 C62.088,29.8986 62.134,29.8896 62.177,29.8716 C62.134,29.8896 62.088,29.8986 62.043,29.9126" id="Fill-1" fill="#000000"></path>
                        <path d="M62.3262,29.7935 C62.3642,29.7725 62.4052,29.7565 62.4402,29.7325 C62.4052,29.7565 62.3642,29.7725 62.3262,29.7935" id="Fill-3" fill="#000000"></path>
                        <path d="M61.7373,29.9741 C61.7863,29.9691 61.8373,29.9691 61.8833,29.9591 C61.8373,29.9691 61.7863,29.9691 61.7373,29.9741" id="Fill-5" fill="#000000"></path>
                        <path d="M62.9521,29.1592 C62.9701,29.1262 62.9911,29.0962 63.0071,29.0612 C62.9911,29.0962 62.9701,29.1262 62.9521,29.1592" id="Fill-7" fill="#000000"></path>
                        <path d="M62.6719,29.5469 C62.6419,29.5769 62.6059,29.5999 62.5719,29.6269 C62.6059,29.5999 62.6419,29.5769 62.6719,29.5469" id="Fill-9" fill="#000000"></path>
                        <path d="M63.0664,28.876 C63.0774,28.841 63.0914,28.809 63.0994,28.772 C63.0914,28.809 63.0774,28.841 63.0664,28.876" id="Fill-11" fill="#000000"></path>
                        <path d="M62.7822,29.416 C62.8082,29.384 62.8382,29.355 62.8622,29.321 C62.8382,29.355 62.8082,29.384 62.7822,29.416" id="Fill-13" fill="#000000"></path>
                        <path d="M48.9434,1.0205 C48.9074,1.0155 48.8674,1.0165 48.8304,1.0135 C48.8674,1.0165 48.9074,1.0155 48.9434,1.0205" id="Fill-15" fill="#000000"></path>
                        <path d="M48.3975,59.6807 C48.4825,59.6947 48.5675,59.7047 48.6535,59.7047 C48.5675,59.7047 48.4825,59.6947 48.3975,59.6807" id="Fill-17" fill="#000000"></path>
                        <path d="M48.0703,59.5928 C48.1633,59.6298 48.2593,59.6578 48.3573,59.6768 C48.2593,59.6578 48.1633,59.6298 48.0703,59.5928" id="Fill-19" fill="#000000"></path>
                        <path d="M48.9082,59.6807 C48.9212,59.6787 48.9352,59.6797 48.9492,59.6767 C48.9352,59.6797 48.9212,59.6787 48.9082,59.6807" id="Fill-21" fill="#000000"></path>
                        <g id="Group-25" transform="translate(0.000000, 0.020500)">
                            <mask id="mask-2" fill="white">
                                <use xlink:href="#path-1"></use>
                            </mask>
                            <g id="Clip-24"></g>
                            <path d="M73.1621,15.167 L73.1621,46.721 L73.1621,46.854 L73.0401,46.902 L63.2071,50.831 L62.9391,50.938 L62.9391,50.649 L62.9391,42.617 C62.9551,41.862 62.3601,41.238 61.6131,41.223 C61.2151,41.227 60.8781,41.363 60.6171,41.63 C60.3631,41.888 60.2261,42.229 60.2301,42.591 L60.2301,51.893 L60.2301,52.024 L60.1081,52.074 L50.2751,56.025 L50.0081,56.133 L50.0081,55.844 L50.0081,24.269 L50.0081,24.136 L50.1311,24.087 L59.9631,20.159 L60.2301,20.052 L60.2301,20.34 L60.2301,28.393 C60.2201,29.145 60.8181,29.764 61.5651,29.774 L61.5751,29.968 L61.5751,29.774 C62.3301,29.774 62.9301,29.188 62.9401,28.439 L62.9391,19.096 L62.9391,18.963 L63.0621,18.915 L72.8941,14.986 L73.1621,14.879 L73.1621,15.167 Z M48.7251,21.72 L48.6521,21.75 L48.5801,21.72 L48.4341,21.661 L26.9211,13.034 L26.4691,12.853 L26.9211,12.672 L35.6481,9.181 L35.7211,9.152 L35.7931,9.181 L57.4521,17.844 L57.9031,18.025 L57.4521,18.207 L48.7251,21.72 Z M47.2991,24.269 L47.2991,55.844 L47.2991,56.132 L47.0311,56.024 L35.6241,51.453 C36.2231,49.648 36.5581,47.725 36.5581,45.721 C36.5581,37.694 31.3511,30.875 24.1431,28.424 L24.1431,15.167 L24.1431,14.879 L24.4111,14.986 L47.1761,24.088 L47.2991,24.137 L47.2991,24.269 Z M18.2801,61.596 C9.5261,61.596 2.4051,54.474 2.4051,45.721 C2.4051,36.968 9.5261,29.847 18.2801,29.847 C27.0331,29.847 34.1541,36.968 34.1541,45.721 C34.1541,54.474 27.0331,61.596 18.2801,61.596 L18.2801,61.596 Z M39.8311,7.499 L48.5811,4.008 L48.6531,3.979 L48.7251,4.008 L70.3841,12.671 L70.8351,12.852 L70.3851,13.034 L61.6581,16.547 L61.5851,16.576 L61.5121,16.547 L61.3671,16.489 L39.8311,7.861 L39.3781,7.68 L39.8311,7.499 Z M75.0251,11.598 L49.1631,1.253 C49.0161,1.2 48.8381,1.173 48.6241,1.173 L48.6241,0.979 L48.6061,1.173 C48.3961,1.181 48.2241,1.226 48.1161,1.263 L22.2791,11.599 C21.7841,11.799 21.4291,12.333 21.4341,12.868 L21.4341,27.733 C20.4081,27.553 19.3571,27.441 18.2801,27.441 C8.2001,27.441 0.0001,35.642 0.0001,45.721 C0.0001,55.8 8.2001,64 18.2801,64 C25.3921,64 31.5531,59.908 34.5731,53.963 L48.1421,59.391 C48.3061,59.456 48.4761,59.489 48.6541,59.489 C48.8301,59.489 49.0011,59.456 49.1611,59.392 L75.0271,49.045 C75.5161,48.848 75.8721,48.319 75.8721,47.79 L75.8721,12.874 C75.8771,12.334 75.5211,11.799 75.0251,11.598 L75.0251,11.598 Z" id="Fill-23" fill="#000000" mask="url(#mask-2)"></path>
                        </g>
                        <path d="M11.3174,46.5352 C11.5304,46.3192 11.6504,46.0252 11.6464,45.7412 C11.6464,42.0842 14.6224,39.1082 18.2794,39.1082 C19.8674,39.1082 21.3254,39.6182 22.4764,40.5452 L21.6674,40.4592 C21.3684,40.4122 21.0514,40.4862 20.8004,40.6752 C20.5484,40.8642 20.3854,41.1452 20.3524,41.4482 C20.3194,41.7512 20.4174,42.0602 20.6214,42.3002 C20.8254,42.5392 21.1164,42.6832 21.3784,42.6952 L24.9684,43.0732 C25.3054,43.1152 25.6354,42.9932 25.8824,42.7482 C26.1304,42.5042 26.2534,42.1732 26.2194,41.8402 L25.8414,38.0622 C25.8164,37.7652 25.6644,37.4842 25.4264,37.2912 C25.1894,37.0972 24.8834,36.9992 24.5974,37.0392 C24.3044,37.0692 24.0274,37.2222 23.8384,37.4592 C23.6484,37.6952 23.5584,37.9992 23.5914,38.2802 L23.6214,38.5802 C22.1104,37.4662 20.2474,36.8512 18.2794,36.8512 C13.3784,36.8512 9.3894,40.8402 9.3894,45.7412 C9.3894,46.3562 9.9064,46.8762 10.5184,46.8762 C10.8124,46.8762 11.1044,46.7522 11.3174,46.5352" id="Fill-26" fill="#000000"></path>
                        <path d="M26.7852,44.8984 C26.5442,44.6814 26.2292,44.5764 25.9182,44.6124 C25.3422,44.6754 24.9012,45.1784 24.9122,45.7414 C24.9122,49.3994 21.9372,52.3754 18.2802,52.3754 C16.6872,52.3754 15.2242,51.8634 14.0722,50.9314 L14.8922,51.0184 C15.1912,51.0654 15.5082,50.9904 15.7592,50.8024 C16.0102,50.6134 16.1732,50.3324 16.2062,50.0294 C16.2402,49.7274 16.1422,49.4184 15.9392,49.1794 C15.7362,48.9404 15.4462,48.7944 15.1812,48.7814 L11.5922,48.4044 L11.4392,48.3954 L11.3632,48.4024 C11.0702,48.4274 10.7912,48.5774 10.5982,48.8094 C10.4052,49.0434 10.3102,49.3444 10.3402,49.6374 L10.7182,53.4264 C10.7812,54.0344 11.3462,54.5034 11.9582,54.4354 C12.5672,54.3724 13.0292,53.8054 12.9682,53.1974 L12.9382,52.9034 C14.4502,54.0174 16.3132,54.6314 18.2802,54.6314 C23.1812,54.6314 27.1702,50.6434 27.1702,45.7414 C27.1702,45.4244 27.0292,45.1174 26.7852,44.8984" id="Fill-28" fill="#000000"></path>
                    </g>
                </g>
            </g>
        </g>
    </g>
</svg>