<?xml version="1.0" encoding="UTF-8"?>
<svg width="14px" height="22px" viewBox="0 0 14 22" version="1.1" xmlns="http://www.w3.org/2000/svg" xmlns:xlink="http://www.w3.org/1999/xlink">
    <!-- Generator: Sketch 53.1 (72631) - https://sketchapp.com -->
    <title>Fill 1</title>
    <desc>Created with Sketch.</desc>
    <g id="Page-1" stroke="none" stroke-width="1" fill="none" fill-rule="evenodd">
        <g id="desktop-homepage" transform="translate(-18.000000, -509.000000)" fill="#FFFFFF" stroke="#FFFFFF" stroke-width="0.5">
            <g id="50%-off-hero-slider" transform="translate(0.000000, 195.000000)">
                <g id="left-arrow" transform="translate(0.000000, 300.000000)">
                    <path d="M19.2281946,16.6758283 C22.086689,19.3683597 24.9451834,22.0597992 27.8036778,24.7523306 C27.8517197,24.3876487 27.8986698,24.0229669 27.9467117,23.658285 C25.0696556,26.9950149 22.1925996,30.3317448 19.3155435,33.6673829 C18.022779,35.1676011 21.0636144,35.5126294 21.936012,34.4993816 C24.8130681,31.1626517 27.6901241,27.8270137 30.5671802,24.4902838 C30.7964712,24.2238695 31.0377727,23.7041432 30.7102141,23.3962381 C27.8517197,20.7047986 24.9932253,18.0122672 22.1347309,15.3197358 C21.153147,14.3949288 18.1614455,15.6713153 19.2281946,16.6758283" id="Fill-1" transform="translate(24.935000, 25.038642) scale(-1, 1) translate(-24.935000, -25.038642) "></path>
                </g>
            </g>
        </g>
    </g>
</svg>